<svg xmlns="http://www.w3.org/2000/svg" width="820" height="420" viewBox="0 0 820 420" role="img" aria-label="History LOC">
<rect width="100%" height="100%" fill="#ffffff"/>
<text x="24.00" y="36.00" font-family="Arial, sans-serif" font-size="22" font-weight="700" fill="#111827">History LOC</text>
<text x="24.00" y="58.00" font-family="Arial, sans-serif" font-size="12" font-weight="400" fill="#4b5563">Code lines</text>
<line x1="74" y1="348" x2="786" y2="348" stroke="#111827" stroke-width="1"/>
<line x1="74" y1="64" x2="74" y2="348" stroke="#111827" stroke-width="1"/>
<line x1="74" y1="348.00" x2="786" y2="348.00" stroke="#e5e7eb" stroke-width="1"/>
<text x="14.00" y="352.00" font-family="Arial, sans-serif" font-size="11" font-weight="400" fill="#4b5563">0</text>
<line x1="74" y1="277.00" x2="786" y2="277.00" stroke="#e5e7eb" stroke-width="1"/>
<text x="14.00" y="281.00" font-family="Arial, sans-serif" font-size="11" font-weight="400" fill="#4b5563">4005</text>
<line x1="74" y1="206.00" x2="786" y2="206.00" stroke="#e5e7eb" stroke-width="1"/>
<text x="14.00" y="210.00" font-family="Arial, sans-serif" font-size="11" font-weight="400" fill="#4b5563">8010</text>
<line x1="74" y1="135.00" x2="786" y2="135.00" stroke="#e5e7eb" stroke-width="1"/>
<text x="14.00" y="139.00" font-family="Arial, sans-serif" font-size="11" font-weight="400" fill="#4b5563">12016</text>
<line x1="74" y1="64.00" x2="786" y2="64.00" stroke="#e5e7eb" stroke-width="1"/>
<text x="14.00" y="68.00" font-family="Arial, sans-serif" font-size="11" font-weight="400" fill="#4b5563">16021</text>
<line x1="74.00" y1="348" x2="74.00" y2="353" stroke="#111827" stroke-width="1"/>
<text x="54.00" y="376.00" font-family="Arial, sans-serif" font-size="10" font-weight="400" fill="#4b5563">352367a</text>
<line x1="111.47" y1="348" x2="111.47" y2="353" stroke="#111827" stroke-width="1"/>
<line x1="148.95" y1="348" x2="148.95" y2="353" stroke="#111827" stroke-width="1"/>
<line x1="186.42" y1="348" x2="186.42" y2="353" stroke="#111827" stroke-width="1"/>
<line x1="223.89" y1="348" x2="223.89" y2="353" stroke="#111827" stroke-width="1"/>
<line x1="261.37" y1="348" x2="261.37" y2="353" stroke="#111827" stroke-width="1"/>
<line x1="298.84" y1="348" x2="298.84" y2="353" stroke="#111827" stroke-width="1"/>
<line x1="336.32" y1="348" x2="336.32" y2="353" stroke="#111827" stroke-width="1"/>
<line x1="373.79" y1="348" x2="373.79" y2="353" stroke="#111827" stroke-width="1"/>
<line x1="411.26" y1="348" x2="411.26" y2="353" stroke="#111827" stroke-width="1"/>
<line x1="448.74" y1="348" x2="448.74" y2="353" stroke="#111827" stroke-width="1"/>
<line x1="486.21" y1="348" x2="486.21" y2="353" stroke="#111827" stroke-width="1"/>
<line x1="523.68" y1="348" x2="523.68" y2="353" stroke="#111827" stroke-width="1"/>
<line x1="561.16" y1="348" x2="561.16" y2="353" stroke="#111827" stroke-width="1"/>
<line x1="598.63" y1="348" x2="598.63" y2="353" stroke="#111827" stroke-width="1"/>
<line x1="636.11" y1="348" x2="636.11" y2="353" stroke="#111827" stroke-width="1"/>
<line x1="673.58" y1="348" x2="673.58" y2="353" stroke="#111827" stroke-width="1"/>
<line x1="711.05" y1="348" x2="711.05" y2="353" stroke="#111827" stroke-width="1"/>
<line x1="748.53" y1="348" x2="748.53" y2="353" stroke="#111827" stroke-width="1"/>
<line x1="786.00" y1="348" x2="786.00" y2="353" stroke="#111827" stroke-width="1"/>
<text x="766.00" y="376.00" font-family="Arial, sans-serif" font-size="10" font-weight="400" fill="#4b5563">5d116db</text>
<polyline points="74.00,156.20 111.47,156.20 148.95,151.89 186.42,151.89 223.89,138.47 261.37,138.47 298.84,135.88 336.32,135.88 373.79,130.60 411.26,130.60 448.74,129.39 486.21,129.39 523.68,120.53 561.16,120.53 598.63,113.39 636.11,113.39 673.58,111.56 711.05,111.56 748.53,101.05 786.00,101.05" fill="none" stroke="#2563eb" stroke-width="2.5"/>
<circle cx="74.00" cy="156.20" r="3" fill="#2563eb"/>
<circle cx="111.47" cy="156.20" r="3" fill="#2563eb"/>
<circle cx="148.95" cy="151.89" r="3" fill="#2563eb"/>
<circle cx="186.42" cy="151.89" r="3" fill="#2563eb"/>
<circle cx="223.89" cy="138.47" r="3" fill="#2563eb"/>
<circle cx="261.37" cy="138.47" r="3" fill="#2563eb"/>
<circle cx="298.84" cy="135.88" r="3" fill="#2563eb"/>
<circle cx="336.32" cy="135.88" r="3" fill="#2563eb"/>
<circle cx="373.79" cy="130.60" r="3" fill="#2563eb"/>
<circle cx="411.26" cy="130.60" r="3" fill="#2563eb"/>
<circle cx="448.74" cy="129.39" r="3" fill="#2563eb"/>
<circle cx="486.21" cy="129.39" r="3" fill="#2563eb"/>
<circle cx="523.68" cy="120.53" r="3" fill="#2563eb"/>
<circle cx="561.16" cy="120.53" r="3" fill="#2563eb"/>
<circle cx="598.63" cy="113.39" r="3" fill="#2563eb"/>
<circle cx="636.11" cy="113.39" r="3" fill="#2563eb"/>
<circle cx="673.58" cy="111.56" r="3" fill="#2563eb"/>
<circle cx="711.05" cy="111.56" r="3" fill="#2563eb"/>
<circle cx="748.53" cy="101.05" r="3" fill="#2563eb"/>
<circle cx="786.00" cy="101.05" r="3" fill="#2563eb"/>
<rect x="74" y="396" width="12" height="12" fill="#2563eb"/>
<text x="92.00" y="406.00" font-family="Arial, sans-serif" font-size="12" font-weight="400" fill="#111827">Code lines</text>
</svg>
